<svg width="64" height="64" viewBox="0 0 64 64" fill="none" xmlns="http://www.w3.org/2000/svg">
  <rect width="64" height="64" rx="18" fill="#13162B"/>
  <path d="M18 44C18 30 28.5 20 44 20" stroke="url(#paint0_linear_1_1)" stroke-width="6" stroke-linecap="round"/>
  <path d="M20 24C24 24 28 28 28 32C28 36 24 40 20 40C16 40 12 36 12 32C12 28 16 24 20 24Z" fill="url(#paint1_linear_1_1)"/>
  <path d="M44 44C37 44 32 39 32 32C32 25 37 20 44 20C51 20 56 25 56 32C56 39 51 44 44 44Z" fill="url(#paint2_linear_1_1)"/>
  <defs>
    <linearGradient id="paint0_linear_1_1" x1="18" y1="20" x2="44" y2="44" gradientUnits="userSpaceOnUse">
      <stop stop-color="#5C6CFD"/>
      <stop offset="1" stop-color="#A855F7"/>
    </linearGradient>
    <linearGradient id="paint1_linear_1_1" x1="12" y1="24" x2="28" y2="40" gradientUnits="userSpaceOnUse">
      <stop stop-color="#5C6CFD"/>
      <stop offset="1" stop-color="#31C6FF"/>
    </linearGradient>
    <linearGradient id="paint2_linear_1_1" x1="32" y1="20" x2="56" y2="44" gradientUnits="userSpaceOnUse">
      <stop stop-color="#5C6CFD"/>
      <stop offset="1" stop-color="#A855F7"/>
    </linearGradient>
  </defs>
</svg>

