<svg width="720" height="520" viewBox="0 0 720 520" fill="none" xmlns="http://www.w3.org/2000/svg">
  <rect width="720" height="520" rx="36" fill="#0B0D17"/>
  <rect x="32" y="32" width="656" height="456" rx="28" fill="#10142A"/>
  <rect x="64" y="72" width="592" height="120" rx="24" fill="url(#paint0_linear_1_1)"/>
  <rect x="64" y="212" width="280" height="176" rx="24" fill="#151A34"/>
  <rect x="356" y="212" width="300" height="80" rx="20" fill="#151A34"/>
  <rect x="356" y="304" width="300" height="84" rx="20" fill="#151A34"/>
  <rect x="64" y="408" width="592" height="56" rx="18" fill="#151A34"/>
  <circle cx="128" cy="132" r="30" fill="#1F2442"/>
  <circle cx="206" cy="132" r="30" fill="#1F2442"/>
  <circle cx="284" cy="132" r="30" fill="#1F2442"/>
  <rect x="128" y="244" width="152" height="18" rx="9" fill="#1F2442"/>
  <rect x="128" y="280" width="184" height="18" rx="9" fill="#1F2442"/>
  <rect x="128" y="316" width="164" height="18" rx="9" fill="#1F2442"/>
  <rect x="128" y="352" width="140" height="18" rx="9" fill="#1F2442"/>
  <defs>
    <linearGradient id="paint0_linear_1_1" x1="64" y1="72" x2="656" y2="192" gradientUnits="userSpaceOnUse">
      <stop stop-color="#5C6CFD"/>
      <stop offset="1" stop-color="#A855F7"/>
    </linearGradient>
  </defs>
</svg>

